<svg xmlns="http://www.w3.org/2000/svg" viewBox="0 0 700 950">
  <g fill="none" stroke="#fff1d6" stroke-width="5" stroke-linecap="round" stroke-linejoin="round" opacity=".22">
    <g transform="translate(492 54) rotate(17)">
      <path d="M0 82c62-42 130-41 191 0-23 18-57 28-96 28S23 100 0 82Z"/>
      <path d="M44 75c31-22 70-22 102 0"/>
      <path d="M20 73c10-50 140-50 151 0"/>
      <path d="M63 32c13 10 18 22 15 36M96 22c11 15 15 30 11 48M130 31c9 11 13 25 10 38"/>
      <path d="M48 87l18 15M75 91l19 17M105 91l18 17M134 87l19 15"/>
    </g>
    <g transform="translate(-14 64)">
      <ellipse cx="78" cy="60" rx="49" ry="27" transform="rotate(-18 78 60)"/>
      <path d="M35 56c32 17 61 15 86-8M26 78c40 21 82 18 115-9"/>
      <path d="M43 83c-15 14-24 28-28 42M66 90c-7 18-9 34-6 50M94 88c4 19 11 33 23 45"/>
    </g>
    <g transform="translate(12 526) rotate(-21)">
      <path d="M87 0c48 30 71 75 70 129-1 55-26 87-72 98-45-10-70-43-72-98C11 75 38 30 87 0Z"/>
      <path d="M87 0c-23 44-31 91-27 142 3 40 12 68 25 85M87 0c20 44 27 92 22 144-4 38-12 66-24 83M34 68c37 18 70 17 104-2M27 111c40 18 82 17 122-3"/>
      <path d="M85 227c-14 19-35 29-63 29 23-8 40-20 50-37M85 227c14 19 35 29 63 29-23-8-40-20-50-37"/>
    </g>
    <g transform="translate(558 587) rotate(16)">
      <path d="M71 26c-22 73-25 142-8 208M96 23c-8 76-7 146 5 210M121 29c4 75 1 144-9 207"/>
      <path d="M54 236c27 17 55 18 83 2M48 265c33 22 66 23 99 2"/>
      <path d="M69 25c-17-18-34-23-52-15 12 22 30 31 52 15ZM94 24c-8-25 0-41 23-49 7 27-1 43-23 49ZM121 30c21-18 43-21 65-9-17 21-39 24-65 9Z"/>
    </g>
    <g transform="translate(618 269) rotate(12)">
      <path d="M23 3c49 34 65 75 46 124"/>
      <path d="M50 34c34 31 43 63 27 97"/>
      <path d="M17 78c31 10 54 24 68 43"/>
      <path d="M31 18c-18 16-23 36-15 60M55 45c-15 19-18 39-9 60"/>
    </g>
    <g transform="translate(20 300) rotate(-24)">
      <path d="M7 57c45-54 100-66 166-35-21 24-49 39-84 45-34 6-62 3-82-10Z"/>
      <path d="M31 51c45-14 83-22 116-26M58 63c35-10 66-18 94-25M20 74c35 16 75 16 120 0"/>
    </g>
  </g>
</svg>
